<?xml version="1.0" standalone="no"?>
<!DOCTYPE svg PUBLIC "-//W3C//DTD SVG 20010904//EN"
 "http://www.w3.org/TR/2001/REC-SVG-20010904/DTD/svg10.dtd">
<svg version="1.0" xmlns="http://www.w3.org/2000/svg"
 width="1080.000000pt" height="1080.000000pt" viewBox="0 0 1080.000000 1080.000000"
 preserveAspectRatio="xMidYMid meet">
<metadata>
Created by potrace 1.14, written by Peter Selinger 2001-2017
</metadata>
<g transform="translate(0.000000,1080.000000) scale(0.100000,-0.100000)"
fill="#000000" stroke="none">
<path d="M8307 7535 c-1 -1 -65 -5 -142 -9 -147 -6 -165 -8 -285 -32 -109 -21
-107 -20 -205 -49 -135 -40 -256 -96 -372 -171 -180 -116 -313 -263 -399 -439
-44 -92 -85 -214 -99 -295 -4 -25 -10 -54 -12 -65 -3 -11 -6 -85 -8 -165 -3
-205 25 -359 93 -505 113 -244 295 -417 598 -568 136 -69 259 -118 479 -191
94 -32 179 -61 190 -66 11 -5 49 -18 85 -29 288 -86 536 -236 601 -364 64
-124 61 -286 -7 -418 -28 -55 -126 -143 -195 -176 -87 -42 -127 -53 -279 -79
-39 -6 -314 -7 -375 0 -123 13 -160 19 -265 42 -170 38 -380 111 -588 204 -40
18 -74 31 -76 29 -3 -3 -103 -325 -110 -354 -1 -5 -15 -50 -30 -100 -16 -49
-34 -110 -41 -135 -7 -25 -16 -52 -20 -61 -5 -13 6 -23 52 -44 172 -79 394
-155 577 -196 145 -33 169 -37 301 -53 33 -4 71 -10 85 -12 128 -20 549 -20
657 0 10 2 43 7 74 10 161 19 381 86 538 164 368 184 589 483 657 886 13 80
13 342 0 396 -4 14 -11 45 -16 70 -22 112 -92 267 -169 375 -85 120 -236 255
-394 354 -94 60 -296 161 -320 161 -7 0 -17 4 -22 9 -6 5 -80 32 -165 59 -474
154 -568 186 -663 231 -173 80 -251 144 -294 238 -59 128 -51 298 19 412 166
269 694 323 1255 127 115 -41 313 -123 328 -137 5 -5 16 -9 25 -9 16 0 42 81
195 593 l23 77 -86 40 c-46 22 -90 40 -96 40 -7 0 -16 4 -21 9 -9 7 -172 63
-295 100 -75 23 -247 57 -335 67 -27 3 -63 7 -80 9 -42 7 -363 23 -368 20z"/>
<path d="M831 7388 c11 -40 42 -161 70 -268 28 -107 57 -220 66 -250 8 -30 19
-71 23 -90 4 -19 24 -96 44 -170 58 -224 226 -866 371 -1425 20 -77 50 -192
66 -255 17 -63 41 -158 55 -210 13 -52 29 -111 34 -130 15 -53 111 -423 115
-440 2 -8 27 -105 56 -215 28 -110 77 -299 109 -420 l56 -220 486 -3 486 -2
11 32 c6 18 12 44 15 58 2 14 12 54 21 90 9 36 19 75 21 88 3 13 14 60 25 105
11 45 22 93 25 107 3 14 12 52 21 85 8 33 17 69 20 80 2 11 5 25 7 30 2 6 7
28 11 50 10 45 9 41 18 75 4 14 25 99 46 190 22 91 53 222 70 292 17 69 33
140 36 157 3 16 9 41 14 54 5 13 12 41 15 61 4 21 8 42 11 46 2 3 7 20 9 36
10 50 16 77 120 504 24 102 47 196 50 210 2 14 14 66 26 115 12 50 30 133 41
185 11 52 22 102 24 110 2 8 22 113 45 233 24 119 46 217 50 217 3 0 17 -53
29 -117 13 -65 24 -125 26 -133 2 -8 11 -51 20 -95 9 -44 18 -87 20 -95 2 -8
13 -58 24 -110 11 -52 30 -135 41 -185 12 -49 23 -97 25 -105 2 -8 24 -100 50
-205 26 -104 48 -197 50 -205 2 -8 11 -43 20 -77 9 -35 18 -72 20 -84 2 -11 7
-29 10 -39 3 -10 8 -27 10 -37 2 -10 11 -46 20 -80 9 -35 18 -71 20 -81 2 -10
10 -41 18 -68 8 -27 15 -53 15 -57 0 -4 80 -329 178 -722 l179 -715 497 0
c274 0 498 2 498 5 0 3 22 92 49 198 180 703 245 955 472 1847 55 217 112 438
125 490 14 52 26 102 28 110 2 8 29 114 61 235 31 121 58 227 60 235 4 18 60
236 179 701 47 186 86 340 86 343 0 3 -204 6 -454 6 -424 0 -455 -1 -460 -17
-5 -18 -34 -141 -42 -178 -2 -11 -31 -141 -65 -288 -33 -147 -62 -276 -64
-285 -2 -9 -18 -78 -35 -152 -17 -74 -51 -223 -75 -330 -24 -107 -65 -285 -90
-395 -26 -110 -48 -207 -50 -215 -5 -24 -63 -312 -69 -342 -12 -59 -18 -91
-66 -338 -27 -140 -52 -268 -55 -285 -5 -28 -8 -46 -20 -105 -2 -14 -7 -41
-10 -60 -4 -19 -13 -71 -20 -115 -8 -44 -15 -86 -15 -92 0 -7 -4 -13 -8 -13
-5 0 -16 48 -26 108 -18 113 -29 172 -72 392 -14 74 -28 146 -30 160 -3 14
-19 88 -35 165 -16 77 -32 156 -35 174 -5 28 -51 246 -69 321 -6 28 -187 746
-286 1140 -55 217 -102 402 -104 410 -2 8 -15 62 -30 120 -15 58 -28 112 -30
120 -2 8 -8 34 -14 58 l-12 42 -473 0 -474 0 -32 -127 c-17 -71 -33 -135 -35
-143 -2 -8 -36 -143 -75 -300 -39 -157 -73 -292 -75 -300 -2 -8 -11 -43 -20
-77 -9 -35 -18 -72 -21 -83 -8 -37 -12 -55 -33 -136 -12 -45 -23 -90 -25 -100
-3 -10 -38 -153 -80 -317 -42 -164 -78 -308 -80 -320 -3 -12 -27 -123 -55
-247 -27 -124 -52 -238 -55 -255 -3 -16 -8 -41 -11 -55 -11 -53 -17 -86 -20
-105 -3 -18 -8 -46 -19 -100 -2 -11 -7 -40 -11 -65 -4 -25 -9 -54 -11 -65 -7
-33 -33 -188 -40 -229 -3 -21 -7 -46 -9 -55 -2 -9 -6 -42 -10 -74 -4 -31 -11
-57 -15 -57 -5 0 -11 19 -15 43 -4 23 -9 51 -11 62 -2 11 -10 63 -19 115 -8
52 -17 106 -20 120 -2 13 -7 40 -10 60 -3 20 -7 45 -9 55 -2 11 -7 40 -11 65
-9 57 -11 65 -34 185 -11 55 -23 114 -26 130 -12 66 -57 312 -61 340 -3 17
-14 64 -24 105 -10 41 -21 86 -23 100 -3 14 -24 104 -47 200 -23 96 -43 181
-45 190 -2 8 -20 83 -40 165 -20 83 -45 188 -55 235 -11 47 -38 162 -61 255
-22 94 -43 181 -45 195 -3 14 -17 70 -31 125 -14 55 -27 111 -30 125 -2 14
-21 95 -42 180 l-37 155 -461 3 -461 2 19 -72z"/>
</g>
</svg>
